<svg width="163" height="30" viewBox="0 0 163 30" fill="none" xmlns="http://www.w3.org/2000/svg">
<g clip-path="url(#clip0_171_801)">
<path d="M16.6893 29.9577C16.6244 29.9577 16.5567 29.9633 16.4918 29.969C16.4072 29.9746 16.3226 29.9802 16.2323 29.9859C16.0461 29.9972 15.8656 29.9972 15.685 29.9972H15.3127C15.1632 29.9972 15.0052 29.9972 14.8557 29.9859C14.7288 29.9802 14.5962 29.9802 14.4664 29.9605C14.2859 29.9605 14.1054 29.9436 13.9305 29.9238C13.6794 29.8928 13.4199 29.8646 13.1688 29.8223C13.025 29.8053 12.8755 29.78 12.7316 29.7574C12.5821 29.732 12.4326 29.7038 12.2802 29.6728C12.0997 29.6361 11.9135 29.5938 11.7274 29.5458C11.5102 29.4922 11.2901 29.4386 11.0729 29.3709C11.0137 29.354 10.9516 29.3286 10.8867 29.3061C10.7175 29.2637 10.5623 29.2101 10.4072 29.1509C10.221 29.0917 10.0348 29.024 9.8543 28.9478C9.69069 28.8829 9.52425 28.8152 9.36064 28.7362C9.23935 28.6883 9.12087 28.6403 9.00521 28.5811C8.90366 28.5388 8.81339 28.4908 8.71748 28.4429L8.68081 28.4259C8.50592 28.3413 8.32538 28.2454 8.15331 28.1495C8.02637 28.0846 7.90225 28.0113 7.77531 27.9323C7.71607 27.8956 7.66248 27.8589 7.60042 27.8307C7.47348 27.7574 7.34936 27.6812 7.23371 27.5966C7.14344 27.543 7.06445 27.4894 6.98265 27.433C6.8275 27.3258 6.67517 27.2158 6.52567 27.1086C6.38744 27.007 6.24922 26.9055 6.111 26.7955L6.09971 26.7842C5.87686 26.6149 5.66812 26.4344 5.4622 26.2567C3.23935 24.2934 1.733 21.8223 0.968542 19.1735C0.835961 18.7221 0.723126 18.2736 0.638499 17.811V17.7997C0.621574 17.7038 0.601828 17.6079 0.590545 17.512C0.44668 16.4795 0.308457 14.251 1.57503 12.0226C1.93046 11.3907 2.79365 9.92664 4.57926 9.01832C6.20126 8.19463 7.70197 8.27925 8.77108 8.3526C11.2111 8.52185 16.1533 9.60224 16.4975 11.921C17.0334 15.5204 7.37193 17.7828 7.36064 22.2821C7.355 24.3836 9.4622 26.9675 16.6893 29.9605V29.9577Z" fill="url(#paint0_linear_171_801)"/>
<path d="M21.0813 10.3553C20.3592 10.801 19.2562 9.40744 15.7837 7.2805C12.7428 5.41873 10.5284 4.09574 7.74138 4.07317C6.30556 4.06188 5.19413 4.39757 4.4325 4.69094C6.88666 2.04778 10.0996 0.485015 13.4537 0.0534215C13.4565 0.0534215 13.4593 0.0534215 13.4621 0.0534215C14.0545 -0.0312047 14.661 -0.0142795 15.2477 0.107018C19.7216 1.04073 20.6469 4.34679 20.802 4.81224C21.4029 6.61478 21.9868 9.79954 21.0841 10.3581L21.0813 10.3553Z" fill="url(#paint1_linear_171_801)"/>
<path d="M28.7652 8.04794C28.7483 8.18052 28.7229 8.30746 28.7003 8.43722C28.6693 8.58672 28.6354 8.73059 28.5875 8.87445C28.2264 10.0282 27.4394 10.9647 26.8103 10.976C25.8061 10.9816 25.95 8.62057 23.5184 4.78983C22.0769 2.52466 20.7426 1.31733 20.0289 0.736229C19.9641 0.682633 19.8907 0.623394 19.8174 0.575439C20.2151 0.696737 20.61 0.83496 21.0021 0.990108C21.1629 1.05499 21.3322 1.12269 21.4873 1.19321C22.8696 1.7997 24.1785 2.62904 25.3745 3.68122C26.6834 4.8406 27.7469 6.17488 28.5536 7.63327H28.5593C28.6326 7.77149 28.7031 7.90971 28.7708 8.04794H28.7652Z" fill="url(#paint2_linear_171_801)"/>
<path d="M26.7339 24.9226C26.0315 25.7265 25.2557 26.443 24.4405 27.0608L24.4349 27.0664C24.4349 27.0664 24.4236 27.0721 24.4179 27.0777C24.4123 27.0834 24.401 27.0834 24.401 27.089C23.9976 27.3965 23.5858 27.6645 23.1598 27.924C23.1542 27.924 23.1542 27.9296 23.1485 27.9296C22.5364 28.333 21.7945 28.68 20.9257 28.8379C16.3249 29.6616 10.6972 24.6094 11.4306 21.6165C12.0653 19.0382 17.3432 18.3245 18.2007 18.2173C18.2177 18.2173 18.2289 18.2117 18.3361 18.2004C26.6069 16.8915 27.2219 16.8436 27.8538 16.3133C29.3375 15.0749 29.3319 12.5841 29.0667 10.5333C28.9595 9.72934 28.8185 8.99591 28.7 8.43738C28.7226 8.3048 28.748 8.17786 28.7649 8.0481C28.7875 8.09041 28.8072 8.12708 28.8241 8.16939C28.8411 8.20042 28.8608 8.22863 28.8721 8.25966C28.9201 8.35557 28.9737 8.45712 29.0244 8.56714C29.0611 8.65176 29.1006 8.74203 29.1429 8.8323L29.1485 8.83794C29.1485 8.83794 29.1542 8.84922 29.1542 8.85487C29.1711 8.89718 29.1909 8.94513 29.2078 8.99309C29.2078 8.99873 29.2134 9.00437 29.2134 9.01848C29.2783 9.16234 29.3319 9.31185 29.3968 9.46982C29.4024 9.48674 29.4137 9.51213 29.4194 9.52905C29.6563 10.1609 29.8679 10.79 30.023 11.4388C30.023 11.4388 30.0287 11.4444 30.023 11.4501C30.2007 12.2004 30.3249 12.9592 30.3841 13.7209V13.7378C30.3897 13.8027 30.3954 13.876 30.3954 13.9494C30.6549 17.8111 29.456 21.7886 26.7367 24.9254L26.7339 24.9226Z" fill="url(#paint3_linear_171_801)"/>
</g>
<path d="M161.797 6.32244C161.848 6.60122 161.485 6.86832 161.441 6.90036C161.174 7.09186 160.863 7.08794 160.666 7.03482C160.222 6.91453 159.887 6.41348 159.885 5.79742C159.882 5.68918 159.866 5.11115 160.05 4.90071C160.072 4.87641 160.093 4.8602 160.119 4.85755C160.251 4.84405 160.345 5.19943 160.478 5.42287C160.856 6.06182 161.723 5.91145 161.797 6.32244Z" fill="url(#paint4_linear_171_801)"/>
<path d="M51.4962 20.9414H44.2319L42.8338 25.2271H38.4269L45.5389 5.16699H50.1892L57.2714 25.2271H52.8943L51.4962 20.9414ZM50.4632 17.6895L48.5179 11.7322C48.3052 11.094 48.0619 10.2125 47.9096 9.45261H47.8185C47.6969 10.2125 47.4237 11.094 47.211 11.7624L45.2964 17.6895L50.4632 17.6895Z" fill="#17314F"/>
<path d="M97.3362 5.16699V17.3245C97.3362 22.279 93.9623 25.4398 88.9776 25.4398C83.9325 25.4398 80.5586 22.279 80.5586 17.3245V5.16699H84.8745V17.2943C84.8745 20.0905 86.5465 21.7013 88.9776 21.7013C91.3789 21.7013 93.0203 20.0905 93.0203 17.3246V5.16699H97.3362Z" fill="#17314F"/>
<path d="M111.866 20.9414H104.602L103.204 25.2271H98.797L105.909 5.16699H110.559L117.641 25.2271H113.264L111.866 20.9414ZM110.833 17.6895L108.888 11.7322C108.675 11.094 108.432 10.2125 108.28 9.45261H108.189C108.067 10.2125 107.794 11.094 107.581 11.7624L105.666 17.6895L110.833 17.6895Z" fill="#17314F"/>
<path d="M122.295 8.72301H116.186V5.16699H132.72V8.72301H126.611V25.2271H122.295L122.295 8.72301Z" fill="#17314F"/>
<path d="M135.214 5.16699H139.439V25.2271H135.214V5.16699Z" fill="#17314F"/>
<path d="M162.235 15.1667C162.235 21.4886 158.223 25.4399 152.479 25.4399C146.734 25.4399 142.692 21.4886 142.692 15.1667C142.692 8.9056 146.734 4.95435 152.479 4.95435C158.223 4.95435 162.235 8.9056 162.235 15.1667ZM157.858 15.1667C157.858 11.0942 155.609 8.69287 152.479 8.69287C149.348 8.69287 147.068 11.0942 147.068 15.1667C147.068 19.2698 149.348 21.6711 152.479 21.6711C155.609 21.6711 157.858 19.2698 157.858 15.1667Z" fill="#17314F"/>
<path d="M77.5161 15.3035C77.5161 15.2803 77.5141 15.2582 77.514 15.2351C77.5141 15.2119 77.5161 15.1899 77.5161 15.1667C77.5161 15.0306 77.5036 14.9019 77.4999 14.7681C77.4948 14.6308 77.4921 14.492 77.4832 14.357C77.1489 8.57024 73.2505 4.95435 67.7594 4.95435C62.0148 4.95435 57.9729 8.9056 57.9729 15.1667C57.9729 15.19 57.9754 15.2118 57.9755 15.2351C57.9754 15.2583 57.9729 15.2802 57.9729 15.3035C57.9729 21.5646 62.0148 25.5158 67.7594 25.5158C73.2505 25.5158 77.1489 21.8999 77.4832 16.1131C77.4921 15.9782 77.4948 15.8394 77.4999 15.7021C77.5036 15.5683 77.5161 15.4395 77.5161 15.3035ZM67.7594 8.79905C70.8721 8.79905 73.1111 11.1747 73.1366 15.2351C73.1111 19.2955 70.8721 21.6711 67.7594 21.6711C64.6466 21.6711 62.3775 19.2955 62.3516 15.2351C62.3774 11.1747 64.6466 8.79905 67.7594 8.79905Z" fill="#17314F"/>
<path d="M74.1672 26.449L74.159 26.4394L74.1509 26.4297C74.1346 26.4103 74.1234 26.3866 74.1071 26.3671L74.0623 26.3138C73.4372 25.4657 73.5898 24.4851 74.3995 23.8042C75.2453 23.093 76.299 23.142 77.0287 24.0098L77.0368 24.0194L77.045 24.0291C77.7705 24.892 77.6381 25.9385 76.7923 26.6497C75.9825 27.3306 74.9903 27.3126 74.2661 26.5562L74.2172 26.498C74.2009 26.4786 74.1794 26.4636 74.1672 26.449Z" fill="#17314F"/>
<defs>
<linearGradient id="paint0_linear_171_801" x1="8.59464" y1="8.30835" x2="8.59464" y2="29.9972" gradientUnits="userSpaceOnUse">
<stop stop-color="#2C6886"/>
<stop offset="1" stop-color="#3FD2D5"/>
</linearGradient>
<linearGradient id="paint1_linear_171_801" x1="4.44944" y1="2.96176" x2="22.0799" y2="10.4371" gradientUnits="userSpaceOnUse">
<stop stop-color="#3F659F"/>
<stop offset="1" stop-color="#74EF8F"/>
</linearGradient>
<linearGradient id="paint2_linear_171_801" x1="20.1051" y1="0.564145" x2="28.2857" y2="10.7193" gradientUnits="userSpaceOnUse">
<stop stop-color="#559F70"/>
<stop offset="1" stop-color="#55EFB7"/>
</linearGradient>
<linearGradient id="paint3_linear_171_801" x1="15.0272" y1="26.6574" x2="29.6958" y2="11.0015" gradientUnits="userSpaceOnUse">
<stop stop-color="#26B1CA"/>
<stop offset="0.482641" stop-color="#54EEB8"/>
<stop offset="1" stop-color="#55EFB7"/>
</linearGradient>
<linearGradient id="paint4_linear_171_801" x1="155.042" y1="21.1099" x2="155.838" y2="19.0165" gradientUnits="userSpaceOnUse">
<stop stop-color="#23ADCB"/>
<stop offset="1" stop-color="#55EFB7"/>
</linearGradient>
<clipPath id="clip0_171_801">
<rect width="29.9267" height="30" fill="white" transform="translate(0.5)"/>
</clipPath>
</defs>
</svg>
