<svg width="81" height="84" viewBox="0 0 81 84" fill="none" xmlns="http://www.w3.org/2000/svg">
<path d="M2.16526 33.0989C-0.345283 34.8149 -0.441263 38.0419 1.8463 40.0457C4.90633 42.726 10.2181 47.0631 19.2051 53.6654C19.2051 53.6564 19.2052 53.6519 19.2052 53.6519C22.9296 45.8329 69.474 8.00019 71.4738 10.0002C73.4506 11.9772 46.0736 48.4839 34.377 63.8267C34.1036 64.1855 33.9074 64.5621 33.764 64.9897C32.6824 68.2158 27.6927 82.6612 24.735 83.6877C31.06 82.4685 37.3569 77.4096 43.1924 70.4228C50.5955 75.3099 55.8355 78.457 59.0209 80.2839C61.2495 81.5621 63.9833 81.0873 65.1549 78.8009C71.9195 65.5993 79.5423 26.4781 80.9761 5.98275C81.2073 2.67713 78.5291 0.0309531 75.2695 0.627373C54.9743 4.34085 16.0553 23.6039 2.16526 33.0989Z" fill="#1CB57D"/>
<path d="M24.4154 83.7453C24.4152 83.7451 24.4155 83.7455 24.4154 83.7453V83.7453Z" fill="#1CB57D"/>
<g style="mix-blend-mode:overlay" filter="url(#filter0_i_4656_67285)">
<path d="M2.16526 33.0989C-0.345283 34.8149 -0.441263 38.0419 1.8463 40.0457C4.90633 42.726 10.2181 47.0631 19.2051 53.6654C19.2051 53.6564 19.2052 53.6519 19.2052 53.6519C22.9296 45.8329 69.474 8.00019 71.4738 10.0002C73.4506 11.9772 46.0736 48.4839 34.377 63.8267C34.1036 64.1855 33.9074 64.5621 33.764 64.9897C32.6824 68.2158 27.6927 82.6612 24.735 83.6877C31.06 82.4685 37.3569 77.4096 43.1924 70.4228C50.5955 75.3099 55.8355 78.457 59.0209 80.2839C61.2495 81.5621 63.9833 81.0873 65.1549 78.8009C71.9195 65.5993 79.5423 26.4781 80.9761 5.98275C81.2073 2.67713 78.5291 0.0309531 75.2695 0.627373C54.9743 4.34085 16.0553 23.6039 2.16526 33.0989Z" fill="white" fill-opacity="0.08"/>
<path d="M24.4154 83.7453C24.4152 83.7451 24.4155 83.7455 24.4154 83.7453V83.7453Z" fill="white" fill-opacity="0.08"/>
</g>
<defs>
<filter id="filter0_i_4656_67285" x="-1.79688" y="-1.45703" width="82.7891" height="85.2024" filterUnits="userSpaceOnUse" color-interpolation-filters="sRGB">
<feFlood flood-opacity="0" result="BackgroundImageFix"/>
<feBlend mode="normal" in="SourceGraphic" in2="BackgroundImageFix" result="shape"/>
<feColorMatrix in="SourceAlpha" type="matrix" values="0 0 0 0 0 0 0 0 0 0 0 0 0 0 0 0 0 0 127 0" result="hardAlpha"/>
<feOffset dx="-2" dy="-2"/>
<feGaussianBlur stdDeviation="2"/>
<feComposite in2="hardAlpha" operator="arithmetic" k2="-1" k3="1"/>
<feColorMatrix type="matrix" values="0 0 0 0 0 0 0 0 0 0 0 0 0 0 0 0 0 0 0.24 0"/>
<feBlend mode="normal" in2="shape" result="effect1_innerShadow_4656_67285"/>
</filter>
</defs>
</svg>
